<?xml version="1.0" encoding="UTF-8"?> <svg xmlns="http://www.w3.org/2000/svg" width="395" height="130" viewBox="0 0 395 130" fill="none"><g clip-path="url(#clip0)"><path d="M34.5712 31.3027C25.4772 31.3027 17.2856 34.8425 11.3849 41.228L11.1766 36.0918C10.9684 34.0096 9.51054 32.6214 7.56678 32.6214H3.60984C1.45782 32.6214 0 34.1484 0 36.2306V126.391C0 128.542 1.45782 130 3.60984 130H7.70562C9.85765 130 11.3155 128.542 11.3155 126.391V96.4762L11.4543 93.6305C17.4244 99.8078 25.5466 103.209 34.5712 103.209C44.1511 103.209 52.8981 99.4607 59.2847 92.6588C65.4631 85.9957 68.8647 77.1116 68.8647 67.5334C68.8647 46.9194 54.1476 31.3027 34.5712 31.3027ZM34.0158 92.7282C20.826 92.7282 10.4824 81.623 10.4824 67.4639C10.4824 53.0272 20.826 41.7832 34.0158 41.7832C40.6107 41.7832 46.7197 44.3513 51.0237 49.071C55.3972 53.7907 57.8269 60.315 57.8269 67.4639C57.8269 81.9007 47.6221 92.7282 34.0158 92.7282Z" fill="#000425"></path><path d="M89.2742 0.069397H85.1784C83.0264 0.069397 81.5685 1.52695 81.5685 3.67858V98.6972C81.5685 100.849 83.0264 102.306 85.1784 102.306H89.2742C91.4262 102.306 92.884 100.849 92.884 98.6972V3.67858C92.884 1.52695 91.4262 0.069397 89.2742 0.069397Z" fill="#000425"></path><path d="M170.982 32.6215H167.025C165.011 32.6215 163.623 33.9402 163.415 36.1612L163.207 41.1586C157.306 34.7731 149.114 31.2333 140.02 31.2333C120.444 31.2333 105.727 46.85 105.727 67.6028C105.727 77.181 109.128 86.0651 115.307 92.7282C121.693 99.5302 130.44 103.278 140.02 103.278C149.045 103.278 157.167 99.8772 163.137 93.6999L163.415 98.9055C163.623 100.988 165.081 102.376 167.025 102.376H170.982C173.134 102.376 174.591 100.918 174.591 98.7667V36.3C174.661 34.1484 173.134 32.6215 170.982 32.6215ZM140.576 92.7282C127.039 92.7282 116.764 81.8313 116.764 67.464C116.764 60.315 119.194 53.7907 123.568 49.071C127.941 44.3513 133.981 41.7832 140.576 41.7832C153.765 41.7832 164.109 53.0966 164.109 67.464C164.109 81.6231 153.765 92.7282 140.576 92.7282Z" fill="#000425"></path><path d="M214.924 61.9808C207.08 59.2045 199.652 56.567 199.652 50.3203C199.652 46.2253 202.637 41.4362 210.967 41.4362C217.493 41.4362 221.728 44.1431 226.379 48.4463C227.559 49.6263 228.67 49.8345 229.433 49.7651C229.989 49.6957 230.96 49.4874 231.724 48.4463L233.46 46.4335C235.126 44.1431 234.223 42.4079 233.529 41.6444C227.281 34.2872 217.909 31.0251 211.384 31.0251C198.472 31.0251 188.753 39.2846 188.753 50.2509C188.753 63.1607 199.721 67.1169 210.343 71.0037C218.604 73.9882 226.379 76.7645 226.379 83.8441C226.379 89.4661 221.311 93.1447 213.467 93.1447C203.748 93.1447 196.667 86.2039 195.279 84.8158C194.515 84.0523 193.543 83.2194 192.363 83.2888C191.53 83.3582 190.766 83.7747 190.141 84.6076L187.642 87.3839C187.087 88.0085 186.046 89.8131 187.92 92.0342C190.28 94.7411 199.027 103.695 213.536 103.695C225.06 103.695 237.555 96.1292 237.555 83.9135C237.486 70.032 225.476 65.7982 214.924 61.9808Z" fill="#000425"></path><path d="M281.776 32.6215H267.614V3.60918C267.614 1.45755 266.156 0 264.004 0H259.909C257.757 0 256.299 1.45755 256.299 3.60918V32.6215H246.996C244.844 32.6215 243.387 34.079 243.387 36.2306V39.2152C243.387 41.3668 244.844 42.8243 246.996 42.8243H256.299V98.6279C256.299 100.78 257.757 102.237 259.909 102.237H264.004C266.156 102.237 267.614 100.78 267.614 98.6279V42.8938H281.776C283.928 42.8938 285.386 41.4362 285.386 39.2846V36.3001C285.386 34.1484 283.859 32.6215 281.776 32.6215Z" fill="#000425"></path><path d="M301.283 0C297.048 0 293.994 2.98452 293.994 7.14896C293.994 11.3828 297.048 14.4367 301.283 14.4367C305.309 14.4367 308.294 11.3134 308.294 7.14896C308.294 3.05392 305.24 0 301.283 0Z" fill="#00AEEF"></path><path d="M303.157 32.6215H299.061C296.909 32.6215 295.452 34.079 295.452 36.2306V98.6973C295.452 100.849 296.909 102.306 299.061 102.306H303.157C305.309 102.306 306.767 100.849 306.767 98.6973V36.2306C306.767 34.1484 305.309 32.6215 303.157 32.6215Z" fill="#000425"></path><path d="M387.78 88.2862C392.293 82.1089 395 74.4741 395 66.1452C395 45.4618 378.2 28.6653 357.513 28.6653C336.826 28.6653 320.026 45.4618 320.026 66.1452C320.026 86.8286 336.826 103.625 357.513 103.625C365.844 103.625 373.549 100.918 379.797 96.268L385.42 101.89C386.878 103.348 389.238 103.348 390.696 101.89L393.403 99.1831C394.861 97.7256 394.861 95.3657 393.403 93.9082L387.78 88.2862ZM357.513 91.6871C343.421 91.6871 332.036 80.3043 332.036 66.2146C332.036 52.1249 343.421 40.7421 357.513 40.7421C371.605 40.7421 382.99 52.1249 382.99 66.2146C382.99 71.1426 381.602 75.7928 379.103 79.6797L372.924 73.5024C371.467 72.0449 369.106 72.0449 367.648 73.5024L364.941 76.2093C363.483 77.6668 363.483 80.0267 364.941 81.4843L371.119 87.6615C367.232 90.2296 362.511 91.6871 357.513 91.6871Z" fill="#000425"></path></g><defs><clipPath id="clip0"><rect width="395" height="130" fill="white"></rect></clipPath></defs></svg> 