<svg width="34" height="34" viewBox="0 0 34 34" fill="none" xmlns="http://www.w3.org/2000/svg">
<circle cx="17" cy="17" r="17" fill="#A3A3A3"/>
<path d="M11.6498 23.64L16.8098 18.16C17.2365 17.7067 17.5832 17.3 17.8498 16.94C18.1165 16.58 18.3098 16.24 18.4298 15.92C18.5498 15.6 18.6098 15.2733 18.6098 14.94C18.6098 14.3133 18.4032 13.8267 17.9898 13.48C17.5898 13.12 17.0765 12.94 16.4498 12.94C15.7832 12.94 15.1965 13.1067 14.6898 13.44C14.1832 13.7733 13.7298 14.2933 13.3298 15L11.7298 13.68C12.2765 12.7333 12.9498 12.02 13.7498 11.54C14.5498 11.0467 15.4765 10.8 16.5298 10.8C17.3965 10.8 18.1565 10.9733 18.8098 11.32C19.4632 11.6667 19.9698 12.1533 20.3298 12.78C20.6898 13.3933 20.8698 14.1067 20.8698 14.92C20.8698 15.5067 20.7965 16.0333 20.6498 16.5C20.5165 16.9533 20.2832 17.4133 19.9498 17.88C19.6165 18.3333 19.1565 18.8667 18.5698 19.48L14.6098 23.58L11.6498 23.64ZM11.6498 25V23.64L13.6298 22.94H21.1498V25H11.6498Z" fill="#F8FAFC"/>
</svg>
