<svg width="34" height="34" viewBox="0 0 34 34" fill="none" xmlns="http://www.w3.org/2000/svg">
<circle cx="17" cy="17" r="17" fill="#A3A3A3"/>
<path d="M16.0196 25.2C15.0863 25.2 14.2396 25.0333 13.4796 24.7C12.7329 24.3533 12.0996 23.8533 11.5796 23.2L13.1396 21.64C13.4196 22.0667 13.8129 22.4067 14.3196 22.66C14.8263 22.9133 15.3796 23.04 15.9796 23.04C16.5529 23.04 17.0463 22.9333 17.4596 22.72C17.8729 22.5067 18.1929 22.2067 18.4196 21.82C18.6596 21.4333 18.7796 20.9867 18.7796 20.48C18.7796 19.9467 18.6596 19.4933 18.4196 19.12C18.1929 18.7467 17.8596 18.46 17.4196 18.26C16.9929 18.0467 16.4729 17.94 15.8596 17.94C15.6196 17.94 15.3729 17.96 15.1196 18C14.8663 18.0267 14.6396 18.0733 14.4396 18.14L15.4596 16.82C15.7396 16.7133 16.0329 16.6267 16.3396 16.56C16.6596 16.48 16.9663 16.44 17.2596 16.44C17.9796 16.44 18.6263 16.6133 19.1996 16.96C19.7863 17.3067 20.2463 17.7933 20.5796 18.42C20.9263 19.0333 21.0996 19.76 21.0996 20.6C21.0996 21.5067 20.8863 22.3067 20.4596 23C20.0329 23.6933 19.4396 24.2333 18.6796 24.62C17.9196 25.0067 17.0329 25.2 16.0196 25.2ZM14.4396 18.14V16.78L18.1796 12.42L20.9396 12.36L17.0396 16.84L14.4396 18.14ZM12.2796 13.06V11H20.9396V12.36L18.9596 13.06H12.2796Z" fill="#F8FAFC"/>
</svg>
