<svg width="22" height="19" viewBox="0 0 22 19" fill="black" xmlns="http://www.w3.org/2000/svg">
<path d="M18.5833 5.74992H17.5V2.49992C17.5 1.30825 16.525 0.333252 15.3333 0.333252H8.83329C7.64163 0.333252 6.66663 1.30825 6.66663 2.49992V17.6666H19.6666C20.8583 17.6666 21.8333 16.6916 21.8333 15.4999V8.99992C21.8333 7.20158 20.3816 5.74992 18.5833 5.74992ZM8.83329 2.49992H15.3333V5.74992H8.83329V2.49992ZM13.1666 14.4166H8.83329V8.99992H13.1666V14.4166ZM15.3333 14.4166C14.7375 14.4166 14.25 13.9291 14.25 13.3333C14.25 12.7374 14.7375 12.2499 15.3333 12.2499C15.9291 12.2499 16.4166 12.7374 16.4166 13.3333C16.4166 13.9291 15.9291 14.4166 15.3333 14.4166ZM15.3333 11.1666C14.7375 11.1666 14.25 10.6791 14.25 10.0833C14.25 9.48742 14.7375 8.99992 15.3333 8.99992C15.9291 8.99992 16.4166 9.48742 16.4166 10.0833C16.4166 10.6791 15.9291 11.1666 15.3333 11.1666ZM18.5833 14.4166C17.9875 14.4166 17.5 13.9291 17.5 13.3333C17.5 12.7374 17.9875 12.2499 18.5833 12.2499C19.1791 12.2499 19.6666 12.7374 19.6666 13.3333C19.6666 13.9291 19.1791 14.4166 18.5833 14.4166ZM18.5833 11.1666C17.9875 11.1666 17.5 10.6791 17.5 10.0833C17.5 9.48742 17.9875 8.99992 18.5833 8.99992C19.1791 8.99992 19.6666 9.48742 19.6666 10.0833C19.6666 10.6791 19.1791 11.1666 18.5833 11.1666ZM2.87496 4.66658C2.15666 4.66658 1.46779 4.95193 0.959878 5.45984C0.451967 5.96775 0.166626 6.65662 0.166626 7.37492V16.0416C0.166626 16.7599 0.451967 17.4488 0.959878 17.9567C1.46779 18.4646 2.15666 18.7499 2.87496 18.7499C3.59325 18.7499 4.28213 18.4646 4.79004 17.9567C5.29795 17.4488 5.58329 16.7599 5.58329 16.0416V7.37492C5.58329 7.01925 5.51324 6.66707 5.37713 6.33848C5.24103 6.00989 5.04153 5.71133 4.79004 5.45984C4.53855 5.20835 4.23998 5.00885 3.91139 4.87274C3.5828 4.73664 3.23062 4.66658 2.87496 4.66658Z" fill="#A3A3A3"/>
</svg>
