<svg width="26" height="26" viewBox="0 0 26 26" fill="none" xmlns="http://www.w3.org/2000/svg">
<path d="M12.4416 3.97557C12.75 3.64903 13.2501 3.64903 13.5585 3.97557L22.708 13.6631C23.0164 13.9896 23.5164 13.9896 23.8248 13.6631C24.1332 13.3366 24.1332 12.8071 23.8248 12.4806L14.6753 2.79306C13.7501 1.81344 12.25 1.81345 11.3248 2.79306L2.17527 12.4806C1.86687 12.8071 1.86687 13.3366 2.17527 13.6631C2.48368 13.9896 2.9837 13.9896 3.29211 13.6631L12.4416 3.97557Z" fill="#A3A3A3"/>
<path d="M13 5.74933L21.5912 14.8456C21.6224 14.8787 21.6544 14.9108 21.687 14.9416V21.8515C21.687 23.006 20.803 23.9419 19.7127 23.9419H16.1589C15.7228 23.9419 15.3692 23.5675 15.3692 23.1057V18.0888C15.3692 17.627 15.0156 17.2526 14.5795 17.2526H11.4206C10.9845 17.2526 10.6309 17.627 10.6309 18.0888V23.1057C10.6309 23.5675 10.2773 23.9419 9.84117 23.9419H6.28743C5.19705 23.9419 4.31313 23.006 4.31313 21.8515V14.9416C4.34569 14.9108 4.37764 14.8787 4.40894 14.8456L13 5.74933Z" fill="#A3A3A3"/>
</svg>
