<svg width="34" height="34" viewBox="0 0 34 34" fill="none" xmlns="http://www.w3.org/2000/svg">
<path d="M26.9167 29.75V7.08333C26.9167 5.51853 25.6481 4.25 24.0833 4.25H9.91667C8.35186 4.25 7.08333 5.51853 7.08333 7.08333V29.75M26.9167 29.75L29.75 29.75M26.9167 29.75H19.8333M7.08333 29.75L4.25 29.75M7.08333 29.75H14.1667M12.75 9.91663H14.1667M12.75 15.5833H14.1667M19.8333 9.91663H21.25M19.8333 15.5833H21.25M14.1667 29.75V22.6666C14.1667 21.8842 14.8009 21.25 15.5833 21.25H18.4167C19.1991 21.25 19.8333 21.8842 19.8333 22.6666V29.75M14.1667 29.75H19.8333" stroke="#737373" stroke-width="2" stroke-linecap="round" stroke-linejoin="round"/>
</svg>
