<svg width="34" height="32" viewBox="0 0 34 32" fill="none" xmlns="http://www.w3.org/2000/svg">
<path d="M17.2842 4.87635C17.1794 4.7761 17.04 4.72015 16.895 4.72015C16.75 4.72015 16.6105 4.7761 16.5057 4.87635L3.54755 17.2552C3.49252 17.3079 3.44874 17.3711 3.41885 17.4412C3.38897 17.5112 3.37361 17.5866 3.37369 17.6628L3.37158 29.2808C3.37158 29.8782 3.60888 30.4511 4.03129 30.8735C4.45369 31.2959 5.02659 31.5332 5.62396 31.5332H12.3881C12.6868 31.5332 12.9732 31.4145 13.1844 31.2033C13.3956 30.9921 13.5143 30.7057 13.5143 30.407V20.8344C13.5143 20.6851 13.5736 20.5418 13.6792 20.4362C13.7848 20.3306 13.9281 20.2713 14.0774 20.2713H19.7083C19.8577 20.2713 20.0009 20.3306 20.1065 20.4362C20.2121 20.5418 20.2714 20.6851 20.2714 20.8344V30.407C20.2714 30.7057 20.3901 30.9921 20.6013 31.2033C20.8125 31.4145 21.0989 31.5332 21.3976 31.5332H28.1589C28.7563 31.5332 29.3292 31.2959 29.7516 30.8735C30.174 30.4511 30.4113 29.8782 30.4113 29.2808V17.6628C30.4114 17.5866 30.396 17.5112 30.3662 17.4412C30.3363 17.3711 30.2925 17.3079 30.2375 17.2552L17.2842 4.87635Z" fill="#455666"/>
<path d="M33.4274 14.9325L28.1624 9.89566V2.25237C28.1624 1.95369 28.0438 1.66724 27.8326 1.45604C27.6214 1.24484 27.3349 1.12619 27.0362 1.12619H23.6577C23.359 1.12619 23.0726 1.24484 22.8614 1.45604C22.6501 1.66724 22.5315 1.95369 22.5315 2.25237V4.50475L18.4547 0.606733C18.0732 0.221014 17.5059 0 16.8928 0C16.2819 0 15.716 0.221014 15.3345 0.607437L0.363222 14.9311C-0.0745832 15.3534 -0.129485 16.0482 0.268904 16.5057C0.368945 16.6212 0.491439 16.7151 0.62893 16.7817C0.766422 16.8483 0.916036 16.8863 1.06867 16.8933C1.2213 16.9003 1.37375 16.8761 1.51675 16.8223C1.65975 16.7685 1.7903 16.6862 1.90047 16.5803L16.5057 2.62401C16.6105 2.52377 16.7499 2.46782 16.8949 2.46782C17.04 2.46782 17.1794 2.52377 17.2842 2.62401L31.8908 16.5803C32.106 16.7866 32.3942 16.8992 32.6922 16.8934C32.9903 16.8876 33.2739 16.7639 33.4808 16.5493C33.913 16.1017 33.8771 15.3626 33.4274 14.9325Z" fill="#455666"/>
</svg>
