<svg width="31" height="27" viewBox="0 0 31 29" fill="black1" xmlns="http://www.w3.org/2000/svg">
<path d="M26.9784 0H3.85406C2.83224 0.00126469 1.85258 0.471483 1.13004 1.30748C0.407496 2.14348 0.00109306 3.27697 0 4.45924V23.5703C0.00109306 24.7526 0.407496 25.8861 1.13004 26.7221C1.85258 27.5581 2.83224 28.0283 3.85406 28.0295H26.9784C28.0002 28.0283 28.9799 27.5581 29.7024 26.7221C30.425 25.8861 30.8314 24.7526 30.8325 23.5703V4.45924C30.8314 3.27697 30.425 2.14348 29.7024 1.30748C28.9799 0.471483 28.0002 0.00126469 26.9784 0V0ZM26.0025 7.37607L16.0921 16.2946C15.8988 16.4684 15.661 16.5627 15.4162 16.5627C15.1715 16.5627 14.9337 16.4684 14.7404 16.2946L4.82996 7.37607C4.71353 7.27433 4.61572 7.14683 4.54224 7.00098C4.46876 6.85513 4.42106 6.69383 4.40192 6.52647C4.38278 6.35911 4.39258 6.18901 4.43075 6.02607C4.46892 5.86312 4.53469 5.71058 4.62425 5.57731C4.71381 5.44403 4.82538 5.33267 4.95245 5.24971C5.07953 5.16676 5.21959 5.11384 5.3645 5.09406C5.5094 5.07427 5.65626 5.088 5.79654 5.13445C5.93682 5.1809 6.06772 5.25914 6.18164 5.36463L15.4162 13.6747L24.6508 5.36463C24.8818 5.16287 25.172 5.07438 25.4589 5.11829C25.7458 5.16221 26.0062 5.33501 26.1838 5.59932C26.3614 5.86362 26.4419 6.1982 26.408 6.53069C26.3741 6.86318 26.2284 7.16687 26.0025 7.37607Z" fill="#455666"/>
</svg>
