<svg width="31" height="30" viewBox="0 0 31 31" fill="none" xmlns="http://www.w3.org/2000/svg">
<path d="M24.7008 30.8322C23.3574 30.8322 21.4703 30.3463 18.6444 28.7675C15.208 26.8405 12.5501 25.0614 9.13229 21.6526C5.83703 18.3594 4.23345 16.2272 1.98912 12.1432C-0.546333 7.53208 -0.114123 5.115 0.369017 4.08196C0.94438 2.84727 1.79366 2.1088 2.89139 1.37583C3.5149 0.967317 4.17472 0.617132 4.86249 0.329713C4.93132 0.300119 4.99532 0.271902 5.05245 0.246437C5.39312 0.0929612 5.9093 -0.138973 6.56312 0.108791C6.99946 0.27259 7.389 0.60776 7.99877 1.20996C9.24929 2.44328 10.9582 5.19002 11.5886 6.53896C12.0119 7.44811 12.292 8.04825 12.2927 8.72134C12.2927 9.50937 11.8962 10.1171 11.4152 10.773C11.325 10.8962 11.2355 11.0138 11.1488 11.1281C10.6251 11.8163 10.5101 12.0152 10.5858 12.3704C10.7393 13.0841 11.8838 15.2086 13.7648 17.0854C15.6457 18.9623 17.7091 20.0345 18.4255 20.1873C18.7958 20.2665 18.9988 20.1467 19.7091 19.6044C19.8109 19.5266 19.9155 19.4461 20.025 19.3656C20.7586 18.8198 21.3381 18.4337 22.1076 18.4337H22.1117C22.7813 18.4337 23.3546 18.7241 24.3044 19.2031C25.5432 19.8281 28.3725 21.5149 29.6134 22.7668C30.217 23.3752 30.5536 23.7634 30.718 24.199C30.9658 24.8549 30.7325 25.369 30.5804 25.7131C30.5549 25.7703 30.5267 25.8329 30.4971 25.9024C30.2074 26.589 29.8552 27.2474 29.4448 27.8694C28.7132 28.9637 27.972 29.8109 26.7345 30.3869C26.0991 30.6875 25.4037 30.8398 24.7008 30.8322V30.8322Z" fill="#455666"/>
</svg>
