<svg width="26" height="26" viewBox="0 0 26 26" fill="none" xmlns="http://www.w3.org/2000/svg">
<path d="M2.59998 3.9001C2.59998 3.18213 3.18201 2.6001 3.89998 2.6001H6.69871C7.3342 2.6001 7.87655 3.05953 7.98102 3.68638L8.94213 9.45301C9.03595 10.016 8.75165 10.5743 8.24119 10.8295L6.22861 11.8358C7.6798 15.4419 10.5582 18.3203 14.1643 19.7715L15.1706 17.7589C15.4258 17.2484 15.9841 16.9641 16.5471 17.0579L22.3137 18.019C22.9405 18.1235 23.4 18.6659 23.4 19.3014V22.1001C23.4 22.8181 22.8179 23.4001 22.1 23.4001H19.5C10.1664 23.4001 2.59998 15.8337 2.59998 6.5001V3.9001Z" fill="#A3A3A3"/>
</svg>
