<svg width="42" height="42" viewBox="0 0 42 42" fill="none" xmlns="http://www.w3.org/2000/svg">
<path d="M37.2999 21C37.2999 30.0022 30.0022 37.2999 21 37.2999C11.9977 37.2999 4.69995 30.0022 4.69995 21C4.69995 11.9977 11.9977 4.69995 21 4.69995C30.0022 4.69995 37.2999 11.9977 37.2999 21ZM29.1384 18.6384C30.1538 17.6231 30.1538 15.9768 29.1384 14.9615C28.1231 13.9461 26.4768 13.9461 25.4615 14.9615L18.9 21.523L16.5384 19.1615C15.5231 18.1461 13.8768 18.1461 12.8615 19.1615C11.8461 20.1768 11.8461 21.8231 12.8615 22.8384L17.0615 27.0384C18.0768 28.0538 19.7231 28.0538 20.7384 27.0384L29.1384 18.6384Z" fill="#A3A3A3" stroke="#A3A3A3"/>
</svg>
