<svg width="42" height="42" viewBox="0 0 42 42" fill="none" xmlns="http://www.w3.org/2000/svg">
<path d="M17.7754 6.75267C19.1899 4.23796 22.8105 4.23796 24.225 6.75267L35.9437 27.5858C37.331 30.0522 35.5487 33.0998 32.7188 33.0998H9.28155C6.4517 33.0998 4.66935 30.0522 6.05672 27.5858L17.7754 6.75267ZM21 29.9C22.436 29.9 23.6 28.736 23.6 27.3C23.6 25.8641 22.436 24.7 21 24.7C19.5641 24.7 18.4 25.8641 18.4 27.3C18.4 28.736 19.5641 29.9 21 29.9ZM21 10C19.5641 10 18.4 11.1641 18.4 12.6V18.9C18.4 20.336 19.5641 21.5 21 21.5C22.436 21.5 23.6 20.336 23.6 18.9V12.6C23.6 11.1641 22.436 10 21 10Z" fill="#A3A3A3" stroke="#A3A3A3"/>
</svg>
